<svg width="78" height="10" viewBox="0 0 78 10" fill="none" xmlns="http://www.w3.org/2000/svg">
<path d="M3.72848 9.26132C3.08848 9.26132 2.48048 9.18932 1.90448 9.04532C1.33648 8.89332 0.924482 8.66932 0.668482 8.37332L0.344482 6.10532H0.764482C0.996482 6.72132 1.27648 7.23732 1.60448 7.65332C1.94048 8.06132 2.28048 8.36132 2.62448 8.55332C2.96848 8.73732 3.28448 8.82932 3.57248 8.82932C3.75648 8.82932 3.91248 8.80532 4.04048 8.75732C4.17648 8.70932 4.27648 8.63732 4.34048 8.54132C4.41248 8.44532 4.44848 8.32132 4.44848 8.16932C4.44848 8.00132 4.38848 7.85332 4.26848 7.72532C4.14848 7.59732 3.98848 7.48132 3.78848 7.37732C3.58848 7.26532 3.29248 7.12132 2.90048 6.94532C2.84448 6.92132 2.78448 6.89732 2.72048 6.87332C2.66448 6.84932 2.60848 6.82132 2.55248 6.78932C2.53648 6.78132 2.51648 6.77332 2.49248 6.76532C2.46848 6.74932 2.44848 6.73732 2.43248 6.72932C2.06448 6.55332 1.75648 6.37732 1.50848 6.20132C1.26048 6.02532 1.06448 5.82132 0.920482 5.58932C0.776482 5.35732 0.704482 5.08932 0.704482 4.78532C0.704482 4.36132 0.836482 4.00932 1.10048 3.72932C1.37248 3.44932 1.72448 3.24532 2.15648 3.11732C2.58848 2.98132 3.06448 2.91332 3.58448 2.91332C3.99248 2.91332 4.42848 2.95732 4.89248 3.04532C5.36448 3.13332 5.77648 3.26132 6.12848 3.42932L6.48848 5.54132H6.06848C5.89248 5.09332 5.68448 4.70532 5.44448 4.37732C5.21248 4.04132 4.95648 3.78532 4.67648 3.60932C4.39648 3.42532 4.10848 3.33332 3.81248 3.33332C3.66848 3.33332 3.54048 3.36532 3.42848 3.42932C3.32448 3.48532 3.24448 3.56132 3.18848 3.65732C3.13248 3.75332 3.10448 3.85732 3.10448 3.96932C3.10448 4.16932 3.17248 4.34532 3.30848 4.49732C3.44448 4.64132 3.62048 4.76932 3.83648 4.88132C4.05248 4.98532 4.35648 5.11332 4.74848 5.26532C4.77248 5.27332 4.79248 5.28132 4.80848 5.28932C4.83248 5.29732 4.85648 5.30532 4.88048 5.31332L5.13248 5.40932C5.46848 5.55332 5.76048 5.70932 6.00848 5.87732C6.25648 6.03732 6.45648 6.23732 6.60848 6.47732C6.76848 6.71732 6.84848 7.00132 6.84848 7.32932C6.84848 7.76932 6.70048 8.13732 6.40448 8.43332C6.10848 8.72132 5.72448 8.93332 5.25248 9.06932C4.78048 9.19732 4.27248 9.26132 3.72848 9.26132Z" fill="#172A3A"/>
<path d="M8.81348 8.84132H8.88548C9.01348 8.82532 9.12148 8.79732 9.20948 8.75732C9.29748 8.71732 9.37348 8.64532 9.43748 8.54132C9.50148 8.42932 9.53348 8.27332 9.53348 8.07332V1.68932C9.53348 1.48132 9.49748 1.32132 9.42548 1.20932C9.36148 1.09732 9.28148 1.02532 9.18548 0.993319C9.08948 0.953319 8.97748 0.929319 8.84948 0.921319C8.84148 0.921319 8.83348 0.921319 8.82548 0.921319C8.82548 0.921319 8.82148 0.921319 8.81348 0.921319V0.681319H12.1735V3.84932C12.3095 3.54532 12.5295 3.31332 12.8335 3.15332C13.1455 2.98532 13.4895 2.90132 13.8655 2.90132C14.2495 2.90132 14.6135 2.97332 14.9575 3.11732C15.3095 3.26132 15.5935 3.48532 15.8095 3.78932C16.0335 4.09332 16.1455 4.46932 16.1455 4.91732V8.07332C16.1455 8.27332 16.1695 8.42932 16.2175 8.54132C16.2655 8.65332 16.3335 8.72932 16.4215 8.76932C16.5095 8.80932 16.6215 8.83332 16.7575 8.84132H16.8655V9.08132H13.0255V8.84132C13.0415 8.84132 13.0575 8.84132 13.0735 8.84132C13.0975 8.83332 13.1175 8.82932 13.1335 8.82932C13.2455 8.81332 13.3255 8.78932 13.3735 8.75732C13.4295 8.71732 13.4655 8.64932 13.4815 8.55332C13.4975 8.44932 13.5055 8.28932 13.5055 8.07332V5.19332C13.5055 4.85732 13.4775 4.58932 13.4215 4.38932C13.3735 4.18132 13.3055 4.03732 13.2175 3.95732C13.1295 3.86932 13.0295 3.82532 12.9175 3.82532C12.7735 3.82532 12.6455 3.88132 12.5335 3.99332C12.4215 4.10532 12.3335 4.28532 12.2695 4.53332C12.2055 4.77332 12.1735 5.08132 12.1735 5.45732V8.07332C12.1735 8.28132 12.1855 8.43732 12.2095 8.54132C12.2415 8.64532 12.2855 8.71732 12.3415 8.75732C12.3975 8.79732 12.4735 8.82132 12.5695 8.82932C12.5855 8.83732 12.5975 8.84132 12.6055 8.84132C12.6215 8.84132 12.6375 8.84132 12.6535 8.84132V9.08132H8.81348V8.84132Z" fill="#172A3A"/>
<path d="M22.1152 9.26132C21.4592 9.26132 20.8752 9.13332 20.3632 8.87732C19.8592 8.62132 19.4592 8.26132 19.1632 7.79732C18.8672 7.33332 18.7072 6.80132 18.6832 6.20132C18.6832 5.56132 18.8232 4.99332 19.1032 4.49732C19.3832 3.99332 19.7672 3.60132 20.2552 3.32132C20.7512 3.04132 21.2992 2.90132 21.8992 2.90132C22.4352 2.90132 22.9352 3.01332 23.3992 3.23732C23.8632 3.46132 24.2312 3.78132 24.5032 4.19732C24.7832 4.60532 24.9232 5.07332 24.9232 5.60132H22.5112C22.5352 5.04132 22.5232 4.58932 22.4752 4.24532C22.4272 3.89332 22.3552 3.64132 22.2592 3.48932C22.1632 3.33732 22.0592 3.26132 21.9472 3.26132C21.7872 3.26132 21.6552 3.38932 21.5512 3.64532C21.4472 3.89332 21.3792 4.23732 21.3472 4.67732C21.3232 5.11732 21.3352 5.60132 21.3832 6.12932C21.4312 6.63332 21.5312 7.06132 21.6832 7.41332C21.8432 7.76532 22.0352 8.02932 22.2592 8.20532C22.4832 8.38132 22.7312 8.46932 23.0032 8.46932C23.3152 8.46932 23.6112 8.34132 23.8912 8.08532C24.1712 7.82932 24.3872 7.52532 24.5392 7.17332L24.8992 7.38932C24.8192 7.65332 24.6952 7.92132 24.5272 8.19332C24.3592 8.45732 24.0792 8.70132 23.6872 8.92532C23.2952 9.14932 22.7712 9.26132 22.1152 9.26132ZM20.7712 5.18132H24.3952V5.60132H20.7712V5.18132Z" fill="#172A3A"/>
<path d="M26.7884 8.84132H26.8604C26.9804 8.83332 27.0844 8.80932 27.1724 8.76932C27.2684 8.72932 27.3484 8.65332 27.4124 8.54132C27.4764 8.42932 27.5084 8.27332 27.5084 8.07332V1.68932C27.5084 1.48132 27.4724 1.32132 27.4004 1.20932C27.3364 1.09732 27.2564 1.02532 27.1604 0.993319C27.0644 0.953319 26.9524 0.929319 26.8244 0.921319C26.8164 0.921319 26.8084 0.921319 26.8004 0.921319C26.8004 0.921319 26.7964 0.921319 26.7884 0.921319V0.681319H30.1484V8.07332C30.1484 8.27332 30.1764 8.42932 30.2324 8.54132C30.2964 8.64532 30.3724 8.72132 30.4604 8.76932C30.5564 8.80932 30.6644 8.83332 30.7844 8.84132H30.8684V9.08132H26.7884V8.84132Z" fill="#172A3A"/>
<path d="M32.6497 8.84132H32.7217C32.8417 8.83332 32.9457 8.80932 33.0337 8.76932C33.1297 8.72932 33.2097 8.65332 33.2737 8.54132C33.3377 8.42932 33.3697 8.27332 33.3697 8.07332V3.50132H32.6977V3.08132H33.3697V2.51732C33.3697 2.11732 33.4817 1.76532 33.7057 1.46132C33.9297 1.14932 34.2257 0.909319 34.5937 0.741318C34.9617 0.573319 35.3537 0.489319 35.7697 0.489319C36.0897 0.489319 36.3897 0.533319 36.6697 0.621319C36.9577 0.709319 37.2217 0.853319 37.4617 1.05332L37.8217 2.92532H37.5817C37.4617 2.54932 37.2857 2.20932 37.0537 1.90532C36.8217 1.60132 36.5657 1.36532 36.2857 1.19732C36.0137 1.02132 35.7617 0.933319 35.5297 0.933319C35.3697 0.933319 35.2297 0.981319 35.1097 1.07732C34.9897 1.17332 34.8977 1.29732 34.8337 1.44932C34.7697 1.60132 34.7377 1.76532 34.7377 1.94132C34.7377 2.24532 34.8337 2.51332 35.0257 2.74532C35.2257 2.96932 35.5097 3.08132 35.8777 3.08132H37.2337V3.50132H36.0097V8.07332C36.0097 8.28132 36.0217 8.44132 36.0457 8.55332C36.0777 8.65732 36.1217 8.72932 36.1777 8.76932C36.2337 8.80932 36.3097 8.83332 36.4057 8.84132H36.4897V9.08132H32.6497V8.84132Z" fill="#172A3A"/>
<path d="M43.2148 9.24932V9.84932H38.9908V9.24932H43.2148Z" fill="#172A3A"/>
<path d="M49.0664 9.26132C48.4184 9.26132 47.8424 9.13732 47.3384 8.88932C46.8344 8.64132 46.4384 8.28132 46.1504 7.80932C45.8624 7.33732 45.7184 6.77732 45.7184 6.12932C45.7184 5.49732 45.8864 4.93732 46.2224 4.44932C46.5664 3.95332 47.0144 3.57332 47.5664 3.30932C48.1184 3.03732 48.7024 2.90132 49.3184 2.90132C49.6704 2.90132 50.0144 2.94932 50.3504 3.04532C50.6944 3.13332 51.0144 3.26932 51.3104 3.45332L51.6704 5.56532H51.2504C51.1704 5.17332 51.0424 4.80532 50.8664 4.46132C50.6904 4.11732 50.4864 3.84132 50.2544 3.63332C50.0304 3.41732 49.7984 3.30932 49.5584 3.30932C49.2944 3.30932 49.0704 3.42532 48.8864 3.65732C48.7104 3.88932 48.5784 4.18932 48.4904 4.55732C48.4024 4.92532 48.3584 5.30932 48.3584 5.70932C48.3584 6.18932 48.4224 6.64132 48.5504 7.06532C48.6784 7.48132 48.8664 7.82132 49.1144 8.08532C49.3624 8.34132 49.6504 8.46932 49.9784 8.46932C50.2344 8.46932 50.4784 8.40132 50.7104 8.26532C50.9504 8.12932 51.1504 7.93732 51.3104 7.68932L51.6464 7.94132C51.3664 8.43732 51.0064 8.78132 50.5664 8.97332C50.1264 9.16532 49.6264 9.26132 49.0664 9.26132Z" fill="#172A3A"/>
<path d="M56.0614 9.26132C55.7094 9.26132 55.3694 9.20132 55.0414 9.08132C54.7134 8.96132 54.4414 8.77332 54.2254 8.51732C54.0094 8.25332 53.9014 7.91732 53.9014 7.50932C53.9014 7.06132 54.0494 6.60932 54.3454 6.15332C54.6494 5.69732 55.0854 5.30532 55.6534 4.97732C56.2214 4.64932 56.8854 4.44932 57.6454 4.37732C57.6214 4.10532 57.5894 3.90132 57.5494 3.76532C57.5094 3.62932 57.4414 3.52932 57.3454 3.46532C57.2494 3.39332 57.1094 3.35732 56.9254 3.35732C56.6774 3.35732 56.4014 3.43332 56.0974 3.58532C55.7934 3.72932 55.4934 3.96532 55.1974 4.29332C54.9094 4.62132 54.6694 5.04532 54.4774 5.56532H54.0574L54.4174 3.45332C54.4654 3.43732 54.5134 3.41732 54.5614 3.39332C54.6174 3.36932 54.6734 3.34932 54.7294 3.33332C55.1054 3.20532 55.5294 3.10532 56.0014 3.03332C56.4814 2.96132 56.9014 2.92532 57.2614 2.92532C57.7974 2.92532 58.2974 3.00132 58.7614 3.15332C59.2254 3.30532 59.6014 3.55332 59.8894 3.89732C60.1854 4.23332 60.3334 4.67732 60.3334 5.22932V8.00132C60.3334 8.02532 60.3334 8.04932 60.3334 8.07332C60.3334 8.09732 60.3334 8.12132 60.3334 8.14532C60.3414 8.32132 60.3574 8.45332 60.3814 8.54132C60.4134 8.62132 60.4574 8.66132 60.5134 8.66132C60.5774 8.66132 60.6334 8.61732 60.6814 8.52932C60.7374 8.43332 60.7894 8.28932 60.8374 8.09732L61.2334 8.26532C61.1534 8.53732 61.0654 8.74132 60.9694 8.87732C60.8734 9.00532 60.7134 9.10132 60.4894 9.16532C60.2734 9.22932 59.9454 9.26132 59.5054 9.26132C59.0734 9.26132 58.7094 9.20532 58.4134 9.09332C58.1254 8.98132 57.9214 8.81332 57.8014 8.58932C57.6494 8.82132 57.4294 8.98932 57.1414 9.09332C56.8614 9.20532 56.5014 9.26132 56.0614 9.26132ZM57.1654 8.61332C57.2454 8.61332 57.3254 8.55332 57.4054 8.43332C57.4854 8.31332 57.5534 8.12532 57.6094 7.86932C57.6654 7.60532 57.6934 7.27332 57.6934 6.87332V5.52932C57.6934 5.37732 57.6894 5.23332 57.6814 5.09732C57.6814 4.96132 57.6774 4.82932 57.6694 4.70132C57.4454 4.76532 57.2614 4.94932 57.1174 5.25332C56.9734 5.54932 56.8694 5.89732 56.8054 6.29732C56.7494 6.68932 56.7214 7.06932 56.7214 7.43732C56.7214 7.85332 56.7654 8.15332 56.8534 8.33732C56.9494 8.52132 57.0534 8.61332 57.1654 8.61332Z" fill="#172A3A"/>
<path d="M66.2321 8.07332C66.2321 8.28132 66.2441 8.44132 66.2681 8.55332C66.3001 8.65732 66.3441 8.72932 66.4001 8.76932C66.4561 8.80932 66.5321 8.83332 66.6281 8.84132H66.7121V9.08132H62.8721V8.84132H62.9441C63.0641 8.83332 63.1681 8.80932 63.2561 8.76932C63.3521 8.72932 63.4321 8.65332 63.4961 8.54132C63.5601 8.42932 63.5921 8.27332 63.5921 8.07332V4.08932C63.5921 3.88132 63.5561 3.72132 63.4841 3.60932C63.4201 3.49732 63.3401 3.42532 63.2441 3.39332C63.1481 3.35332 63.0361 3.32932 62.9081 3.32132C62.9001 3.32132 62.8921 3.32132 62.8841 3.32132C62.8841 3.32132 62.8801 3.32132 62.8721 3.32132V3.08132H66.2321V8.07332ZM67.2161 3.48932C67.0081 3.48932 66.8321 3.61732 66.6881 3.87332C66.5441 4.12132 66.4321 4.48932 66.3521 4.97732C66.2721 5.45732 66.2321 6.04132 66.2321 6.72932L65.6801 5.36132C65.7521 4.82532 65.8801 4.37332 66.0641 4.00532C66.2561 3.62932 66.4801 3.35332 66.7361 3.17732C66.9921 2.99332 67.2481 2.90132 67.5041 2.90132C67.7601 2.90132 68.0081 2.97732 68.2481 3.12932C68.4881 3.28132 68.6761 3.47332 68.8121 3.70532L69.0881 5.92532H68.5961C68.3561 5.23732 68.1721 4.73732 68.0441 4.42532C67.9241 4.10532 67.8001 3.86932 67.6721 3.71732C67.5441 3.56532 67.3921 3.48932 67.2161 3.48932Z" fill="#172A3A"/>
<path d="M74.4746 9.26132C73.8186 9.26132 73.2346 9.13332 72.7226 8.87732C72.2186 8.62132 71.8186 8.26132 71.5226 7.79732C71.2266 7.33332 71.0666 6.80132 71.0426 6.20132C71.0426 5.56132 71.1826 4.99332 71.4626 4.49732C71.7426 3.99332 72.1266 3.60132 72.6146 3.32132C73.1106 3.04132 73.6586 2.90132 74.2586 2.90132C74.7946 2.90132 75.2946 3.01332 75.7586 3.23732C76.2226 3.46132 76.5906 3.78132 76.8626 4.19732C77.1426 4.60532 77.2826 5.07332 77.2826 5.60132H74.8706C74.8946 5.04132 74.8826 4.58932 74.8346 4.24532C74.7866 3.89332 74.7146 3.64132 74.6186 3.48932C74.5226 3.33732 74.4186 3.26132 74.3066 3.26132C74.1466 3.26132 74.0146 3.38932 73.9106 3.64532C73.8066 3.89332 73.7386 4.23732 73.7066 4.67732C73.6826 5.11732 73.6946 5.60132 73.7426 6.12932C73.7906 6.63332 73.8906 7.06132 74.0426 7.41332C74.2026 7.76532 74.3946 8.02932 74.6186 8.20532C74.8426 8.38132 75.0906 8.46932 75.3626 8.46932C75.6746 8.46932 75.9706 8.34132 76.2506 8.08532C76.5306 7.82932 76.7466 7.52532 76.8986 7.17332L77.2586 7.38932C77.1786 7.65332 77.0546 7.92132 76.8866 8.19332C76.7186 8.45732 76.4386 8.70132 76.0466 8.92532C75.6546 9.14932 75.1306 9.26132 74.4746 9.26132ZM73.1306 5.18132H76.7546V5.60132H73.1306V5.18132Z" fill="#172A3A"/>
</svg>
